<svg width="100%" height="100%" id="svg" viewBox="0 0 1440 400" xmlns="http://www.w3.org/2000/svg" class="transition duration-300 ease-in-out delay-150"><defs><linearGradient id="gradient" x1="0%" y1="50%" x2="100%" y2="50%"><stop offset="5%" stop-color="#4554a144"></stop><stop offset="95%" stop-color="#4554a144"></stop></linearGradient></defs><path d="M 0,400 C 0,400 0,80 0,80 C 116.07142857142858,92.14285714285714 232.14285714285717,104.28571428571429 345,102 C 457.85714285714283,99.71428571428571 567.5000000000001,83 679,72 C 790.4999999999999,61.00000000000001 903.8571428571429,55.714285714285715 1031,58 C 1158.142857142857,60.285714285714285 1299.0714285714284,70.14285714285714 1440,80 C 1440,80 1440,400 1440,400 Z" stroke="none" stroke-width="0" fill="url(#gradient)" class="transition-all duration-300 ease-in-out delay-150 path-0"></path><defs><linearGradient id="gradient" x1="0%" y1="50%" x2="100%" y2="50%"><stop offset="5%" stop-color="#4554a166"></stop><stop offset="95%" stop-color="#4554a166"></stop></linearGradient></defs><path d="M 0,400 C 0,400 0,160 0,160 C 148.14285714285717,169.67857142857144 296.28571428571433,179.35714285714286 426,177 C 555.7142857142857,174.64285714285714 667.0000000000001,160.25 755,150 C 842.9999999999999,139.75 907.7142857142856,133.64285714285714 1018,136 C 1128.2857142857144,138.35714285714286 1284.1428571428573,149.17857142857144 1440,160 C 1440,160 1440,400 1440,400 Z" stroke="none" stroke-width="0" fill="url(#gradient)" class="transition-all duration-300 ease-in-out delay-150 path-1"></path><defs><linearGradient id="gradient" x1="0%" y1="50%" x2="100%" y2="50%"><stop offset="5%" stop-color="#4554a188"></stop><stop offset="95%" stop-color="#4554a188"></stop></linearGradient></defs><path d="M 0,400 C 0,400 0,240 0,240 C 147.5,253.5 295,267 399,261 C 503,255 563.5,229.49999999999997 669,231 C 774.5,232.50000000000003 925,261 1061,267 C 1197,273 1318.5,256.5 1440,240 C 1440,240 1440,400 1440,400 Z" stroke="none" stroke-width="0" fill="url(#gradient)" class="transition-all duration-300 ease-in-out delay-150 path-2"></path><defs><linearGradient id="gradient" x1="0%" y1="50%" x2="100%" y2="50%"><stop offset="5%" stop-color="#4554a1ff"></stop><stop offset="95%" stop-color="#4554a1ff"></stop></linearGradient></defs><path d="M 0,400 C 0,400 0,320 0,320 C 148.5,333.42857142857144 297,346.85714285714283 400,346 C 503,345.14285714285717 560.5,330 664,322 C 767.5,314 917,313.1428571428571 1054,314 C 1191,314.8571428571429 1315.5,317.42857142857144 1440,320 C 1440,320 1440,400 1440,400 Z" stroke="none" stroke-width="0" fill="url(#gradient)" class="transition-all duration-300 ease-in-out delay-150 path-3"></path></svg>